<?xml version="1.0" encoding="utf-8"?>
<!-- Generator: Adobe Illustrator 16.0.0, SVG Export Plug-In . SVG Version: 6.00 Build 0)  -->
<!DOCTYPE svg PUBLIC "-//W3C//DTD SVG 1.1//EN" "http://www.w3.org/Graphics/SVG/1.1/DTD/svg11.dtd">
<svg version="1.1" id="Layer_1" xmlns="http://www.w3.org/2000/svg" xmlns:xlink="http://www.w3.org/1999/xlink" x="0px" y="0px"
	 width="505px" height="243px" viewBox="0 0 505 243" enable-background="new 0 0 505 243" xml:space="preserve">
<g>
	<g opacity="0.4">
		<circle opacity="0.7" fill="#FFFFFF" cx="405.148" cy="114.944" r="77.195"/>
		<circle opacity="0.7" fill="#FFFFFF" cx="462.565" cy="192.14" r="39.42"/>
	</g>
	<g>
		<g>
			<g>
				<path fill="#231F20" d="M117.706,62.674h-2.716v-6.791c0-0.75,0.608-1.358,1.358-1.358h6.79v2.716h-5.432V62.674z"/>
			</g>
			<g>
				<path fill="#231F20" d="M195.012,113.4l-38.019-34.09h-17.787c-0.349,0-0.684-0.134-0.937-0.375l-23.262-22.147l1.874-1.967
					l22.868,21.772h17.763c0.334,0,0.657,0.124,0.907,0.347l38.407,34.438L195.012,113.4z"/>
			</g>
		</g>
		<g>
			<g>
				<path fill="#231F20" d="M324.804,21.084h-2.716v-6.79c0-0.75,0.607-1.358,1.357-1.358h6.79v2.716h-5.432V21.084z"/>
			</g>
			<g>
				<path fill="#231F20" d="M402.109,71.812l-38.02-34.091h-17.786c-0.349,0-0.685-0.135-0.937-0.375l-23.262-22.147l1.873-1.967
					l22.869,21.773h17.763c0.334,0,0.656,0.124,0.905,0.347l38.408,34.438L402.109,71.812z"/>
			</g>
		</g>
		<g>
			<g>
				<path fill="#E7E7E7" d="M413.414,100.556v-9.344c0.849-0.537,3.553-1.241,5.154-2.095l6.656,6.605
					c0.627,0.628,1.671,0.628,2.295,0l9.478-9.469c0.624-0.624,0.63-1.641,0.002-2.264l-6.602-6.34
					c0.854-1.602,1.563-3.092,2.099-4.79h9.346c0.885,0,1.278-1.256,1.278-2.145V57.329c0-0.888-0.394-2.293-1.278-2.293h-9.346
					c-0.535-2.546-1.239-3.114-2.095-4.715l6.606-6.437c0.625-0.627,0.625-1.552,0-2.182l-9.471-9.419
					c-0.624-0.632-1.637-0.611-2.264,0.02l-6.705,6.616c-1.602-0.854-4.306-1.547-5.154-2.092v-9.341
					c0-0.884-0.523-2.157-1.411-2.157h-13.391c-0.882,0-2.174,1.273-2.174,2.157v9.341c-2.547,0.545-3.173,1.25-4.767,2.103
					l-6.47-6.604c-0.623-0.631-1.57-0.631-2.195,0l-9.438,9.463c-0.625,0.63-0.605,1.643,0.02,2.27l6.622,6.263
					c-0.854,1.601-1.555,2.168-2.092,4.715h-9.34c-0.888,0-2.047,1.406-2.047,2.293v13.385c0,0.889,1.159,2.145,2.047,2.145h9.34
					c0.537,1.698,1.247,3.188,2.104,4.79l-6.615,6.478c-0.627,0.621-0.627,1.569,0,2.196l9.471,9.434
					c0.625,0.627,1.644,0.613,2.267-0.018l6.327-6.614c1.594,0.854,2.22,1.55,4.767,2.087v9.344c0,0.886,1.292,1.161,2.174,1.161
					h13.391C412.891,101.717,413.414,101.442,413.414,100.556z"/>
				<path fill="#231F20" d="M412.003,103.075h-13.391c-2.112,0-3.531-1.012-3.531-2.519v-8.279
					c-1.434-0.407-2.235-0.889-3.075-1.394c-0.029-0.017-0.059-0.034-0.087-0.052l-5.593,5.846
					c-1.147,1.162-3.093,1.159-4.211,0.037l-9.468-9.429c-0.563-0.565-0.869-1.299-0.868-2.071c0.002-0.769,0.312-1.498,0.871-2.052
					l5.901-5.777c-0.482-0.943-0.977-2.001-1.404-3.167h-8.368c-1.623,0-3.405-1.833-3.405-3.503V57.329
					c0-1.561,1.684-3.652,3.405-3.652h8.275c0.4-1.396,0.871-2.169,1.367-2.979c0.025-0.042,0.051-0.084,0.076-0.127l-5.842-5.526
					c-1.183-1.183-1.193-3.061-0.051-4.213l9.44-9.465c1.112-1.123,3.005-1.125,4.123,0.003l5.738,5.859
					c0.039-0.024,0.076-0.047,0.115-0.07c0.837-0.504,1.635-0.985,3.059-1.394v-8.28c0-1.643,1.881-3.515,3.531-3.515h13.391
					c1.71,0,2.769,1.825,2.769,3.515v8.484c0.382,0.15,0.858,0.32,1.276,0.467c0.725,0.257,1.519,0.538,2.243,0.849l6.029-5.949
					c1.104-1.114,3.069-1.135,4.184-0.009l9.46,9.412c1.15,1.157,1.149,2.958,0.004,4.104l-5.862,5.713
					c0.029,0.048,0.06,0.096,0.088,0.143c0.495,0.81,0.969,1.583,1.368,2.977h8.28c1.713,0,2.637,1.882,2.637,3.652v13.385
					c0,1.698-0.924,3.503-2.637,3.503h-8.374c-0.426,1.161-0.916,2.215-1.396,3.158l5.868,5.635
					c0.574,0.571,0.883,1.312,0.887,2.101c0.001,0.794-0.308,1.54-0.869,2.102l-9.479,9.47c-1.108,1.116-3.096,1.122-4.216,0
					l-5.974-5.932c-0.731,0.315-1.531,0.6-2.264,0.86c-0.41,0.146-0.877,0.313-1.255,0.461v8.484
					C414.771,101.147,414.572,103.075,412.003,103.075z M397.796,100.245c0.177,0.057,0.466,0.115,0.816,0.115h13.391
					c0.018,0,0.032,0,0.049-0.001l0.005-9.146c0-0.465,0.237-0.898,0.631-1.147c0.532-0.337,1.369-0.636,2.429-1.013
					c0.969-0.344,2.065-0.734,2.814-1.134c0.524-0.279,1.172-0.185,1.595,0.234l6.655,6.606c0.135,0.134,0.252,0.13,0.375,0.008
					l9.482-9.473c0.06-0.06,0.071-0.13,0.071-0.176c0-0.044-0.012-0.109-0.068-0.165l-6.584-6.324
					c-0.438-0.421-0.545-1.082-0.258-1.618c0.716-1.343,1.454-2.825,2.004-4.56c0.177-0.565,0.701-0.949,1.293-0.949h9.108
					c0.075-0.164,0.158-0.464,0.158-0.787V57.329c0-0.358-0.099-0.732-0.192-0.935h-9.074c-0.642,0-1.196-0.45-1.328-1.079
					c-0.349-1.657-0.744-2.303-1.292-3.197c-0.213-0.349-0.437-0.717-0.673-1.158c-0.284-0.533-0.184-1.19,0.251-1.612l6.606-6.437
					c0.082-0.084,0.082-0.153-0.017-0.252l-9.463-9.413c-0.024-0.022-0.069-0.069-0.155-0.069c-0.039,0-0.118,0.011-0.188,0.083
					l-6.714,6.626c-0.424,0.417-1.069,0.511-1.593,0.232c-0.743-0.396-1.831-0.781-2.789-1.121c-1.074-0.38-1.922-0.681-2.463-1.027
					c-0.388-0.25-0.622-0.68-0.622-1.143v-9.341c0-0.296-0.124-0.639-0.23-0.799h-13.214c-0.215,0.058-0.755,0.591-0.82,0.86
					l0.004,9.28c0,0.641-0.445,1.194-1.074,1.328c-1.691,0.363-2.364,0.769-3.297,1.331c-0.339,0.204-0.693,0.418-1.111,0.642
					c-0.534,0.284-1.189,0.183-1.61-0.248l-6.471-6.604c-0.054-0.055-0.196-0.059-0.261,0.005l-9.439,9.466
					c-0.091,0.093-0.085,0.247,0.018,0.35l6.595,6.237c0.444,0.42,0.552,1.086,0.264,1.626c-0.234,0.439-0.456,0.805-0.668,1.153
					c-0.548,0.895-0.943,1.542-1.294,3.203c-0.133,0.628-0.687,1.078-1.327,1.078h-9.27c-0.268,0.121-0.723,0.688-0.762,0.961
					l0.002,13.359c0.043,0.22,0.506,0.729,0.75,0.793l9.279-0.006c0.591,0,1.114,0.383,1.293,0.948
					c0.446,1.407,1.028,2.728,2.009,4.56c0.283,0.532,0.183,1.188-0.248,1.61l-6.617,6.478c-0.037,0.039-0.061,0.083-0.061,0.125
					c0,0.057,0.04,0.109,0.072,0.143l9.47,9.43c0.076,0.076,0.175,0.161,0.342-0.009l6.313-6.599
					c0.421-0.44,1.086-0.546,1.623-0.258c0.409,0.219,0.758,0.428,1.09,0.628c0.935,0.561,1.611,0.968,3.314,1.327
					c0.628,0.133,1.077,0.688,1.077,1.329V100.245z"/>
			</g>
			<path fill="#A8AAAD" d="M404.964,76.477c-6.632,0-12.011-5.382-12.011-12.013c0-6.633,5.379-12.013,12.011-12.013
				c6.638,0,12.015,5.38,12.015,12.013C416.979,71.095,411.602,76.477,404.964,76.477z"/>
		</g>
		<g>
			<g>
				<g>
					<path fill="#FFFFFF" d="M500.2,107.985c0-26.005-21.148-47.084-47.153-47.084c-26.004,0-47.263,21.08-47.263,47.083
						c0,23.025,16.967,42.185,38.186,46.276v63.738h17.822v-63.705C483.013,150.272,500.2,131.071,500.2,107.985z"/>
					<path fill="#231F20" d="M461.792,219.355H443.97c-0.751,0-1.358-0.608-1.358-1.357v-62.632
						c-21.847-4.767-38.185-24.935-38.185-47.382c0-26.711,21.811-48.442,48.62-48.442c26.749,0,48.511,21.731,48.511,48.443
						c0,22.516-16.433,42.702-38.407,47.418v62.595C463.15,218.747,462.543,219.355,461.792,219.355z M445.327,216.639h15.107
						v-62.346c0-0.652,0.464-1.212,1.105-1.335c21.266-4.029,37.303-23.363,37.303-44.973c0-25.213-20.545-45.727-45.796-45.727
						c-25.312,0-45.905,20.513-45.905,45.726c0,21.545,15.943,40.867,37.085,44.942c0.638,0.123,1.101,0.682,1.101,1.334V216.639z"
						/>
				</g>
				<g>
					<rect x="443.97" y="152.982" fill="#231F20" width="9.337" height="2.716"/>
				</g>
				<g>
					<rect x="447.363" y="217.998" fill="#BDBEC0" width="11.035" height="8.487"/>
					<path fill="#231F20" d="M458.398,227.843h-11.035c-0.749,0-1.357-0.607-1.357-1.357v-8.487c0-0.751,0.608-1.359,1.357-1.359
						h11.035c0.75,0,1.357,0.608,1.357,1.359v8.487C459.756,227.235,459.148,227.843,458.398,227.843z M448.722,225.127h8.319
						v-5.771h-8.319V225.127z"/>
				</g>
				<rect x="438.028" y="166.223" fill="#FEC40E" width="30.556" height="40.74"/>
				<g>
					<rect x="443.12" y="175.05" fill="#231F20" width="19.521" height="2.716"/>
				</g>
				<g>
					<rect x="443.12" y="185.234" fill="#231F20" width="19.521" height="2.717"/>
				</g>
				<g>
					<rect x="443.12" y="196.269" fill="#231F20" width="19.521" height="2.717"/>
				</g>
			</g>
			<circle fill="#619AD2" cx="452.556" cy="107.932" r="37.27"/>
		</g>
		<polygon fill="#619AD2" points="13.012,11.682 102.451,24.564 82.839,44.176 82.145,44.873 157.147,119.875 232.499,44.523 
			410.646,222.674 339.159,222.756 232.499,116.094 157.147,191.445 46.177,80.475 25.712,100.944 		"/>
		<g>
			<path fill="#231F20" d="M302.118,141.726l-63.55-63.551l-50.955,50.955l-1.92-1.921l51.916-51.915c0.53-0.53,1.39-0.53,1.921,0
				l64.511,64.512L302.118,141.726z"/>
		</g>
		<g>
			
				<rect x="33.661" y="59.687" transform="matrix(0.7071 0.7071 -0.7071 0.7071 63.0136 -30.039)" fill="#231F20" width="68.212" height="2.716"/>
		</g>
		<g>
			<g>
				<rect x="90.036" y="137.364" fill="#939598" width="28.009" height="25.464"/>
				<path fill="#939598" d="M132.963,203.824c0-5.779-3.951-10.441-8.824-10.441h-6.094v-22.067H90.036v22.067h-5.779
					c-4.873,0-8.826,4.672-8.826,10.454L132.963,203.824z"/>
				<g>
					<path fill="#6E6F72" d="M75.431,167.071c0,1.987,1.609,4.244,3.596,4.244h50.342c1.985,0,3.594-2.257,3.594-4.244
						c0-1.984-1.609-4.243-3.594-4.243H79.027C77.041,162.828,75.431,165.087,75.431,167.071
						C75.431,167.071,75.431,165.087,75.431,167.071z"/>
					<path fill="#231F20" d="M129.369,172.673H79.027c-2.835,0-4.954-2.957-4.954-5.602v-0.882c0-0.308,0.102-0.591,0.275-0.819
						c0.661-2.069,2.448-3.9,4.679-3.9h50.342c2.834,0,4.952,2.957,4.952,5.602S132.203,172.673,129.369,172.673z M76.789,167.071
						c0,1.272,1.054,2.886,2.238,2.886h50.342c1.183,0,2.235-1.613,2.235-2.886c0-1.271-1.052-2.886-2.235-2.886H79.027
						C77.843,164.186,76.789,165.8,76.789,167.071z"/>
				</g>
				<g>
					<path fill="#6E6F72" d="M70.515,212.242c0,1.443,2.254,3.209,3.75,3.209h60.301c1.495,0,2.152-1.766,2.152-3.209v-5.885
						c0-1.443-0.657-2.789-2.152-2.789H74.265c-1.496,0-3.75,1.346-3.75,2.789V212.242z"/>
					<path fill="#231F20" d="M134.566,216.81H74.265c-2.136,0-5.108-2.302-5.108-4.567v-5.885c0-2.405,3.052-4.147,5.108-4.147
						h60.301c2.066,0,3.51,1.706,3.51,4.147v5.885C138.076,214.513,136.87,216.81,134.566,216.81z M74.265,204.927
						c-1.063,0-2.392,1.037-2.392,1.431v5.885c0,0.523,1.467,1.851,2.392,1.851h60.301c0.447,0,0.793-0.995,0.793-1.851v-5.885
						c0-0.336-0.057-1.431-0.793-1.431H74.265z"/>
				</g>
				<g>
					<path fill="#939598" d="M144.356,218.067c0-1.445-1.17-2.616-2.615-2.616H65.491c-1.445,0-2.615,1.171-2.615,2.616v4.104
						c0,1.445,1.17,2.616,2.615,2.616h76.251c1.444,0,2.615-1.171,2.615-2.616V218.067z"/>
					<path fill="#231F20" d="M141.742,226.146H65.491c-2.19,0-3.974-1.783-3.974-3.975v-4.104c0-2.191,1.783-3.975,3.974-3.975
						h76.251c2.19,0,3.973,1.783,3.973,3.975v4.104C145.714,224.362,143.932,226.146,141.742,226.146z M65.491,216.81
						c-0.693,0-1.257,0.563-1.257,1.258v4.104c0,0.694,0.563,1.258,1.257,1.258h76.251c0.693,0,1.257-0.563,1.257-1.258v-4.104
						c0-0.694-0.563-1.258-1.257-1.258H65.491z"/>
				</g>
				<g>
					<rect x="95.977" y="126.67" fill="#231F20" width="7.639" height="2.717"/>
				</g>
			</g>
			<g>
				<path fill="#6E6F72" d="M123.156,128.028H112c8.633-2.546,14.786-11.034,14.786-21.219h-15.115
					c0.983-1.697,1.566-3.387,1.566-5.252c0-4.869-3.95-8.941-8.822-8.941c-4.873,0-8.823,4.129-8.823,9.002
					c0,1.862,0.584,3.493,1.567,5.19H81.462c0,10.186,6.155,18.673,14.787,21.219H85.237c-2.167,0-3.689,1.633-3.689,3.8v0.654
					c0,2.165,1.521,4.882,3.689,4.882h37.918c2.167,0,3.376-2.717,3.376-4.882v-0.654
					C126.532,129.661,125.322,128.028,123.156,128.028z"/>
				<path fill="#231F20" d="M123.156,138.724H85.237c-2.975,0-5.047-3.29-5.047-6.241v-0.654c0-2.941,2.169-5.158,5.047-5.158h4.943
					c-6.2-4.139-10.076-11.499-10.076-19.861c0-0.75,0.608-1.358,1.358-1.358h13.525c-0.51-1.295-0.753-2.546-0.753-3.833
					c0-5.713,4.568-10.36,10.181-10.36c5.614,0,10.18,4.62,10.18,10.299c0,1.316-0.245,2.587-0.755,3.894h12.946
					c0.75,0,1.358,0.608,1.358,1.358c0,8.362-3.875,15.722-10.075,19.861h5.086c2.788,0,4.735,2.122,4.735,5.158v0.654
					C127.891,135.483,126.081,138.724,123.156,138.724z M85.237,129.387c-1.395,0-2.331,0.981-2.331,2.441v0.654
					c0,1.554,1.097,3.524,2.331,3.524h37.918c1.137,0,2.019-1.895,2.019-3.524v-0.654c0-0.734-0.196-2.441-2.019-2.441H112
					c-0.675,0-1.247-0.497-1.344-1.164c-0.097-0.668,0.313-1.306,0.96-1.496c7.863-2.32,13.271-9.684,13.773-18.558h-13.719
					c-0.485,0-0.934-0.26-1.177-0.681c-0.242-0.42-0.242-0.938,0.001-1.359c0.944-1.63,1.384-3.083,1.384-4.572
					c0-4.182-3.348-7.583-7.464-7.583c-4.046,0-7.465,3.502-7.465,7.645c0,1.467,0.427,2.858,1.384,4.51
					c0.244,0.42,0.245,0.938,0.002,1.359c-0.242,0.421-0.69,0.681-1.177,0.681H82.858c0.502,8.874,5.911,16.238,13.775,18.558
					c0.647,0.19,1.056,0.828,0.96,1.496c-0.097,0.667-0.669,1.164-1.344,1.164H85.237z"/>
			</g>
			<g>
				<rect x="96.826" y="105.451" fill="#231F20" width="5.941" height="2.717"/>
			</g>
		</g>
		<g>
			<g>
				<rect x="146.903" y="145.853" fill="#939598" width="27.161" height="25.463"/>
				<path fill="#939598" d="M186.563,206.258c0-5.146-3.517-9.479-7.856-9.479h-4.643v-20.371h-27.161v20.371h-3.696
					c-4.339,0-7.856,4.253-7.856,9.396L186.563,206.258z"/>
				<g>
					<path fill="#6E6F72" d="M135.351,173.861c0,1.768,1.434,2.546,3.2,2.546h44.813c1.768,0,3.199-0.778,3.199-2.546
						c0-1.769-1.432-2.546-3.199-2.546h-44.813C136.784,171.315,135.351,172.093,135.351,173.861
						C135.351,173.861,135.351,172.093,135.351,173.861z"/>
					<path fill="#231F20" d="M183.363,177.766h-44.813c-2.769,0-4.558-1.532-4.558-3.904v-0.786c0-0.363,0.143-0.693,0.375-0.937
						c0.662-1.364,2.161-2.182,4.183-2.182h44.813c2.768,0,4.557,1.533,4.557,3.904C187.92,176.233,186.131,177.766,183.363,177.766
						z M136.709,173.861c0,0.789,0.62,1.188,1.842,1.188h44.813c1.221,0,1.841-0.399,1.841-1.188c0-0.293,0-1.188-1.841-1.188
						h-44.813C137.329,172.673,136.709,173.073,136.709,173.861z"/>
				</g>
				<g>
					<path fill="#6E6F72" d="M130.776,213.935c0,1.285,2.206,1.517,3.538,1.517h53.673c1.334,0,3.051-0.231,3.051-1.517v-5.239
						c0-1.285-1.717-2.581-3.051-2.581h-53.673c-1.332,0-3.538,1.296-3.538,2.581V213.935z"/>
					<path fill="#231F20" d="M187.987,216.81h-53.673c-4.418,0-4.896-2.011-4.896-2.875v-5.239c0-2.247,2.97-3.938,4.896-3.938
						h53.673c1.984,0,4.409,1.817,4.409,3.938v5.239C192.396,215.008,191.823,216.81,187.987,216.81z M132.134,213.758
						c0.262,0.137,0.976,0.335,2.18,0.335h53.673c1.009,0,1.513-0.155,1.693-0.25v-5.147c0-0.384-0.966-1.222-1.693-1.222h-53.673
						c-0.799,0-2.082,0.862-2.183,1.258L132.134,213.758z"/>
				</g>
				<g>
					<path fill="#939598" d="M196.979,218.128c0-1.285-1.346-2.677-2.63-2.677h-67.125c-1.284,0-2.389,1.392-2.389,2.677v4.666
						c0,1.285,1.105,1.993,2.389,1.993h67.125c1.285,0,2.63-0.708,2.63-1.993V218.128z"/>
					<path fill="#231F20" d="M194.349,226.146h-67.125c-2.171,0-3.747-1.409-3.747-3.352v-4.666c0-1.904,1.603-4.035,3.747-4.035
						h67.125c2.013,0,3.989,1.999,3.989,4.035v4.666C198.338,224.705,196.623,226.146,194.349,226.146z M127.224,216.81
						c-0.462,0-1.031,0.727-1.031,1.318v4.666c0,0.604,0.859,0.635,1.031,0.635h67.125c0.602,0,1.273-0.271,1.273-0.635v-4.666
						c0-0.542-0.749-1.318-1.273-1.318H127.224z"/>
				</g>
				<g>
					<rect x="154.542" y="137.705" fill="#231F20" width="5.941" height="2.716"/>
				</g>
			</g>
			<g>
				<path fill="#6E6F72" d="M183.848,111.054h-46.073c-0.669,0-1.906,0.977-1.906,1.62v6.983c0,0.643,1.236,0.732,1.906,0.732h2.98
					c0.356,8.487,5.706,16.975,13.128,18.673h-9.804c-1.926,0-3.966,1.362-3.966,3.291v0.582c0,1.929,2.04,2.917,3.966,2.917h33.756
					c1.927,0,3.868-0.988,3.868-2.917v-0.582c0-1.929-1.94-3.291-3.868-3.291h-9.933c7.423-1.698,12.771-10.186,13.128-18.673h2.818
					c0.667,0,0.4-0.089,0.4-0.732v-6.983C184.248,112.031,184.515,111.054,183.848,111.054z"/>
				<path fill="#231F20" d="M177.834,147.211h-33.756c-2.581,0-5.324-1.498-5.324-4.275v-0.582c0-2.781,2.753-4.648,5.324-4.648
					h3.862c-4.55-3.417-7.822-9.374-8.453-15.957h-1.713c-2.946,0-3.264-1.462-3.264-2.091v-6.983c0-1.477,1.899-2.979,3.264-2.979
					h46.073c0.512,0,0.977,0.198,1.307,0.556c0.589,0.64,0.522,1.47,0.472,2.077c-0.01,0.121-0.021,0.24-0.021,0.346v6.983
					c0,0.091,0.012,0.16,0.021,0.214c0.033,0.224,0.122,0.818-0.324,1.337c-0.465,0.54-1.109,0.54-1.455,0.54h-1.551
					c-0.632,6.583-3.905,12.541-8.453,15.957h3.991c2.513,0,5.226,1.776,5.226,4.648v0.582
					C183.06,145.413,180.862,147.211,177.834,147.211z M144.079,140.421c-1.206,0-2.608,0.844-2.608,1.933v0.582
					c0,1.075,1.525,1.559,2.608,1.559h33.756c1.009,0,2.509-0.414,2.509-1.559v-0.582c0-1.139-1.322-1.933-2.509-1.933h-9.933
					c-0.691,0-1.272-0.519-1.349-1.206c-0.078-0.687,0.373-1.322,1.046-1.476c6.422-1.469,11.726-9.114,12.074-17.407
					c0.031-0.727,0.629-1.301,1.357-1.301h1.86v-6.357c0-0.083,0.003-0.171,0.008-0.263h-45.052
					c-0.176,0.063-0.481,0.292-0.619,0.46v6.133c0.142,0.016,0.324,0.027,0.548,0.027h2.98c0.728,0,1.326,0.574,1.357,1.302
					c0.347,8.292,5.651,15.937,12.074,17.406c0.674,0.153,1.124,0.789,1.047,1.476c-0.078,0.688-0.659,1.206-1.35,1.206H144.079z"/>
			</g>
			<g>
				<rect x="140.113" y="119.031" fill="#231F20" width="27.16" height="2.717"/>
			</g>
		</g>
		<g>
			<g>
				<rect x="297.134" y="49.942" fill="#A8AAAD" width="28.009" height="12.732"/>
				<g>
					<rect x="210.56" y="62.674" fill="#FFFFFF" width="201.156" height="123.918"/>
					<path fill="#231F20" d="M411.716,187.951H210.56c-0.75,0-1.358-0.607-1.358-1.358V62.674c0-0.75,0.608-1.358,1.358-1.358
						h201.156c0.751,0,1.358,0.608,1.358,1.358v123.918C413.074,187.344,412.467,187.951,411.716,187.951z M211.918,185.234h198.44
						V64.032h-198.44V185.234z"/>
				</g>
				<g>
					<rect x="202.072" y="186.593" fill="#A8AAAD" width="217.283" height="14.43"/>
					<path fill="#231F20" d="M419.355,202.38H202.072c-0.75,0-1.358-0.607-1.358-1.357v-14.43c0-0.75,0.609-1.358,1.358-1.358
						h217.283c0.75,0,1.357,0.608,1.357,1.358v14.43C420.713,201.772,420.105,202.38,419.355,202.38z M203.431,199.664h214.566
						v-11.713H203.431V199.664z"/>
				</g>
				<g>
					<line fill="#E7E7E7" x1="210.56" y1="62.674" x2="411.716" y2="62.674"/>
					<rect x="210.56" y="61.316" fill="#231F20" width="201.156" height="2.716"/>
				</g>
				<g>
					<polyline fill="#FFFFFF" points="302.226,239.216 302.226,201.022 320.05,201.022 320.05,239.216 					"/>
					<path fill="#231F20" d="M321.408,239.216h-2.716V202.38h-15.109v36.836h-2.715v-38.193c0-0.751,0.608-1.358,1.357-1.358h17.824
						c0.751,0,1.358,0.607,1.358,1.358V239.216z"/>
				</g>
			</g>
			<g>
				<g>
					<path fill="#231F20" d="M339.024,135.168l-1.019-2.519c0.356-0.144,35.769-14.864,41.736-49.846l2.677,0.457
						C376.192,119.759,339.395,135.02,339.024,135.168z"/>
				</g>
				<g>
					<path fill="#231F20" d="M385.832,92.867l-5.249-8.104l-9.531,4.462l-1.152-2.459l10.604-4.965
						c0.618-0.288,1.348-0.077,1.716,0.492l5.893,9.097L385.832,92.867z"/>
				</g>
				<g>
					<g>
						
							<rect x="372.187" y="125.879" transform="matrix(0.7071 0.7071 -0.7071 0.7071 201.6087 -232.2655)" fill="#231F20" width="17.988" height="2.717"/>
					</g>
					<g>
						
							<rect x="379.823" y="118.243" transform="matrix(0.7075 0.7067 -0.7067 0.7075 201.4328 -232.1776)" fill="#231F20" width="2.717" height="17.988"/>
					</g>
				</g>
				<g>
					<g>
						
							<rect x="338.69" y="102.396" transform="matrix(0.7071 0.7072 -0.7072 0.7071 175.2236 -215.4735)" fill="#231F20" width="17.986" height="2.717"/>
					</g>
					<g>
						
							<rect x="346.325" y="94.761" transform="matrix(0.7071 0.7071 -0.7071 0.7071 175.1991 -215.4603)" fill="#231F20" width="2.717" height="17.986"/>
					</g>
				</g>
			</g>
			<g>
				<rect x="324.293" y="149.587" fill="#231F20" width="10.186" height="2.717"/>
			</g>
			<g>
				<rect x="339.571" y="149.587" fill="#231F20" width="50.077" height="2.717"/>
			</g>
			<g>
				<rect x="324.293" y="158.074" fill="#231F20" width="10.186" height="2.717"/>
			</g>
			<g>
				<rect x="339.571" y="158.074" fill="#231F20" width="50.077" height="2.717"/>
			</g>
			<g>
				<rect x="324.293" y="166.563" fill="#231F20" width="10.186" height="2.717"/>
			</g>
			<g>
				<rect x="339.571" y="166.563" fill="#231F20" width="50.077" height="2.717"/>
			</g>
			<g>
				<g>
					<path fill="#FEC40E" d="M262.717,98.535l-3.09,3.09l-5.135-5.134c-1.028-1.028-2.628-1.891-3.532-0.986l-4.537,4.537
						l3.501,3.501c1.029,1.029,0.692,1.811-0.21,2.713l-4.909,4.909c-0.904,0.904-1.774,1.328-2.802,0.298l-3.501-3.501
						l-3.903,3.904c-0.904,0.904-0.676,3.137,0.354,4.164l5.134,5.135l-2.458,2.457c-0.902,0.903-1.099,2.437-0.069,3.466l5.59,5.59
						c1.029,1.029,2.554,0.826,3.458-0.077l2.457-2.458l4.521,4.521c1.029,1.03,2.819,0.815,3.722-0.089l3.903-3.904l-2.438-2.437
						c-1.028-1.028-1.668-2.962-0.765-3.867l4.909-4.907c0.902-0.903,2.748-0.175,3.777,0.854l2.438,2.438l4.535-4.537
						c0.904-0.904,0.486-2.06-0.543-3.089l-4.521-4.521l3.09-3.09c0.902-0.903,1.002-2.324-0.027-3.352l-5.59-5.59
						C265.047,97.541,263.619,97.63,262.717,98.535z"/>
				</g>
				<g>
					<path fill="#D2D3D4" d="M265.515,135.015l3.139,3.139l-5.259,5.26c-1.029,1.027-2.224,2.862-1.319,3.767l4.776,4.777
						l3.786-3.785c1.029-1.029,1.332-0.698,2.236,0.205l4.909,4.908c0.903,0.904,1.686,1.659,0.656,2.688l-3.785,3.786l3.78,3.782
						c0.904,0.902,3.135,0.105,4.164-0.924l5.26-5.258l2.742,2.741c0.903,0.904,2.604,1.516,3.633,0.486l5.589-5.591
						c1.029-1.027,0.685-2.994-0.22-3.898l-2.742-2.742l4.372-4.371c1.027-1.028,0.912-2.347,0.009-3.251l-3.781-3.78l-2.251,2.252
						c-1.028,1.027-3.319,1.78-4.223,0.877l-4.908-4.908c-0.904-0.903,0.3-2.743,1.328-3.771l2.251-2.251l-4.775-4.777
						c-0.904-0.904-1.826-0.624-2.856,0.405l-4.371,4.372l-3.138-3.139c-0.904-0.903-2.474-0.853-3.503,0.175l-5.589,5.591
						C264.396,132.808,264.61,134.11,265.515,135.015z"/>
				</g>
				<g>
					<g>
						<g>
							<path fill="#231F20" d="M257.362,118.824l-0.045-6.424c-0.001-0.366,0.144-0.718,0.403-0.975
								c0.261-0.257,0.609-0.409,0.979-0.393l6.357,0.113l-0.048,2.715l-4.966-0.088l0.035,5.033L257.362,118.824z"/>
						</g>
						<g>
							
								<rect x="254.465" y="121.195" transform="matrix(0.7071 0.7071 -0.7071 0.7071 165.3993 -154.2028)" fill="#231F20" width="28.747" height="2.716"/>
						</g>
					</g>
					<g>
						<g>
							<path fill="#231F20" d="M274.79,146.314c-0.008,0-0.015,0-0.024-0.001l-6.355-0.113l0.048-2.715l4.965,0.088l-0.035-5.032
								l2.715-0.019l0.045,6.424c0.003,0.366-0.142,0.717-0.402,0.975C275.491,146.173,275.148,146.314,274.79,146.314z"/>
						</g>
						<g>
							
								<rect x="250.253" y="133.434" transform="matrix(0.7071 0.7071 -0.7071 0.7071 172.8266 -147.6421)" fill="#231F20" width="28.748" height="2.716"/>
						</g>
					</g>
				</g>
				<g>
					<path fill="#231F20" d="M255.061,101.016l-1.921-1.92l10.221-10.222c0.255-0.255,0.601-0.398,0.96-0.398h24.325v2.717h-23.763
						L255.061,101.016z"/>
				</g>
				<g>
					<rect x="264.88" y="79.989" fill="#231F20" width="23.766" height="2.716"/>
				</g>
				<g>
					<path fill="#231F20" d="M273.058,168.43h-31.094v-2.717h30.539l8.544-8.41l1.905,1.936l-8.941,8.801
						C273.758,168.29,273.414,168.43,273.058,168.43z"/>
				</g>
				<g>
					<rect x="241.964" y="157.226" fill="#231F20" width="26.313" height="2.717"/>
				</g>
				<rect x="294.587" y="78.8" fill="#D2D3D4" width="12.732" height="13.58"/>
				<rect x="224.989" y="156.038" fill="#D2D3D4" width="12.732" height="13.58"/>
			</g>
			<g>
				<rect x="297.134" y="48.584" fill="#231F20" width="28.009" height="2.716"/>
			</g>
		</g>
		<g>
			<rect x="147.751" y="23.631" fill="#D2D3D4" width="16.126" height="14.429"/>
			<g>
				<polyline fill="#FEC40E" points="147.751,38.06 62.875,38.06 62.875,23.631 147.751,23.631 				"/>
				<path fill="#231F20" d="M147.751,39.418H62.875c-0.75,0-1.358-0.608-1.358-1.359V23.631c0-0.75,0.608-1.358,1.358-1.358h84.876
					v2.716H64.234v11.712h83.518V39.418z"/>
			</g>
			<g>
				<line fill="#FFCC32" x1="154.542" y1="38.06" x2="154.542" y2="23.631"/>
				<rect x="153.183" y="23.631" fill="#231F20" width="2.717" height="14.429"/>
			</g>
			<g>
				<polygon fill="#D2D3D4" points="43.65,30.522 62.875,38.06 62.875,23.631 				"/>
				<path fill="#231F20" d="M62.875,39.418c-0.167,0-0.335-0.032-0.496-0.094l-19.225-7.538c-0.527-0.207-0.871-0.719-0.861-1.284
					c0.008-0.566,0.366-1.068,0.898-1.259l19.225-6.891c0.416-0.148,0.878-0.086,1.24,0.167c0.361,0.254,0.577,0.669,0.577,1.111
					V38.06c0,0.449-0.223,0.869-0.593,1.122C63.412,39.338,63.145,39.418,62.875,39.418z M47.516,30.579l14.001,5.49V25.561
					L47.516,30.579z"/>
			</g>
			<g>
				<rect x="62.875" y="29.912" fill="#231F20" width="76.389" height="2.716"/>
			</g>
		</g>
		<g>
			<path fill="#231F20" d="M14.295,24.564h-0.011c-1.553,0-3.062-0.298-4.486-0.886l1.037-2.51c1.093,0.452,2.254,0.681,3.449,0.681
				L14.295,24.564z M18.792,23.669l-1.042-2.508c1.099-0.457,2.083-1.117,2.928-1.963l1.922,1.919
				C21.502,22.217,20.221,23.076,18.792,23.669z M5.984,21.135c-1.1-1.097-1.959-2.377-2.555-3.806l2.507-1.045
				c0.458,1.099,1.119,2.083,1.965,2.927L5.984,21.135z M25.148,17.306l-2.509-1.039c0.455-1.096,0.684-2.26,0.684-3.458
				l2.717-0.043v0.043C26.04,14.366,25.739,15.879,25.148,17.306z M2.528,12.831V12.81c0-1.548,0.297-3.054,0.882-4.475l2.511,1.035
				c-0.449,1.091-0.677,2.249-0.677,3.44L2.528,12.831z M22.625,9.318c-0.46-1.097-1.123-2.081-1.972-2.924l1.914-1.927
				c1.103,1.095,1.965,2.375,2.563,3.801L22.625,9.318z M7.876,6.434L5.951,4.518c1.096-1.102,2.375-1.962,3.802-2.559l1.048,2.505
				C9.704,4.924,8.719,5.586,7.876,6.434z M17.715,4.444c-1.088-0.447-2.242-0.674-3.432-0.674l-0.028-2.395l0.001-0.321
				c0.001,0,0.001,0,0.003,0c1.571,0,3.072,0.295,4.488,0.877L17.715,4.444z"/>
		</g>
		<g opacity="0.7">
			<rect x="448.213" y="100.019" fill="#FFFFFF" width="10.186" height="25.463"/>
			<rect x="461.792" y="109.356" fill="#FFFFFF" width="10.187" height="16.126"/>
			<rect x="433.784" y="87.288" fill="#FFFFFF" width="10.186" height="38.194"/>
		</g>
		<g>
			<g>
				<path fill="#231F20" d="M439.919,92.959l-0.053-7.637c-0.003-0.366,0.142-0.718,0.403-0.976
					c0.261-0.257,0.605-0.399,0.979-0.392l7.556,0.134l-0.048,2.715l-6.165-0.11l0.043,6.246L439.919,92.959z"/>
			</g>
			<g>
				
					<rect x="436.219" y="96.036" transform="matrix(0.7071 0.7072 -0.7072 0.7071 201.6662 -292.027)" fill="#231F20" width="34.173" height="2.717"/>
			</g>
		</g>
		<g>
			<path fill="#FEC40E" d="M247.922,62.622c0,20.569-16.676,37.245-37.246,37.245c-20.571,0-37.249-16.676-37.249-37.245
				c0-20.574,16.677-37.249,37.249-37.249C231.246,25.373,247.922,42.048,247.922,62.622z"/>
			<g>
				<circle fill="#F2F2F2" cx="211.268" cy="61.949" r="25.355"/>
				<path fill="#231F20" d="M211.267,88.662c-14.729,0-26.712-11.983-26.712-26.713c0-14.729,11.983-26.712,26.712-26.712
					c14.73,0,26.713,11.983,26.713,26.712C237.98,76.679,225.997,88.662,211.267,88.662z M211.267,37.952
					c-13.231,0-23.996,10.765-23.996,23.997c0,13.232,10.765,23.998,23.996,23.998c13.232,0,23.997-10.766,23.997-23.998
					C235.263,48.717,224.499,37.952,211.267,37.952z"/>
			</g>
			<circle fill="#A8AAAD" cx="210.924" cy="61.608" r="12.678"/>
		</g>
		<g>
			<polygon fill="#E7E7E7" points="251.387,35.123 245.386,29.122 239.384,23.121 233.382,41.125 			"/>
			<path fill="#231F20" d="M233.382,42.483c-0.354,0-0.701-0.139-0.961-0.397c-0.363-0.364-0.49-0.902-0.328-1.39l6.002-18.005
				c0.149-0.447,0.518-0.784,0.976-0.892c0.458-0.108,0.939,0.028,1.273,0.361l12.003,12.003c0.333,0.333,0.47,0.814,0.361,1.272
				c-0.107,0.458-0.445,0.828-0.893,0.977l-18.005,6.001C233.67,42.46,233.525,42.483,233.382,42.483z M239.977,25.634
				l-4.448,13.344l13.344-4.448L239.977,25.634z"/>
		</g>
		<g>
			<line fill="#FFFFFF" x1="233.382" y1="41.125" x2="210.936" y2="63.571"/>
			
				<rect x="220.8" y="36.476" transform="matrix(0.7073 0.7069 -0.7069 0.7073 102.0349 -141.7267)" fill="#231F20" width="2.716" height="31.744"/>
		</g>
		<g>
			<rect x="334.479" y="221.732" fill="#231F20" width="88.272" height="2.716"/>
		</g>
		<g>
			<rect x="288.646" y="237.858" fill="#231F20" width="40.741" height="2.716"/>
		</g>
		<g>
			<rect x="275.065" y="237.858" fill="#231F20" width="6.79" height="2.716"/>
		</g>
		<g>
			<rect x="168.122" y="223.429" fill="#231F20" width="43.286" height="2.717"/>
		</g>
		<g>
			<rect x="217.35" y="223.429" fill="#231F20" width="10.185" height="2.717"/>
		</g>
	</g>
</g>
</svg>
